#Comment line ignore any data following # character 
#Hierarchical Translation and Rotation (.htr) file 
[Header]	
#Header keywords are followed by a single value 
FileType HTR		#Single word string
DataType HTRS		#Translation followed by rotation and scale data
FileVersion 1		#integer
NumSegments 84		#integer
NumFrames 2		#integer
DataFrameRate 30		#integer, data frame rate in this file
EulerRotationOrder ZYX
CalibrationUnits mm
RotationUnits Degrees
GlobalAxisofGravity Y
BoneLengthAxis Y
ScaleFactor 1.00
[SegmentNames&Hierarchy]
#CHILD	PARENT
MASTER GLOBAL
root MASTER
chest root
L_mid_tent01 root
R_mid_tent01 root
spine01 root
Bip01_Neck chest
L_humerus chest
R_humerus chest
weapon_bone chest
Bip01_Head Bip01_Neck
eye_left_bone Bip01_Head
eye_right_bone Bip01_Head
L_forearm L_humerus
L_front_hand L_forearm
L_weapon_bone L_forearm
L_front_hand01_01 L_front_hand
L_front_hand02_01 L_front_hand
L_front_hand03_01 L_front_hand
L_front_hand01_02 L_front_hand01_01
L_front_hand02_02 L_front_hand02_01
L_front_hand03_02 L_front_hand03_01
R_forearm R_humerus
R_front_hand R_forearm
R_weapon_bone R_forearm
R_front_hand01_01 R_front_hand
R_front_hand02_01 R_front_hand
R_front_hand03_01 R_front_hand
R_front_hand01_02 R_front_hand01_01
R_front_hand02_02 R_front_hand02_01
R_front_hand03_02 R_front_hand03_01
null_rope01_connect L_mid_tent01
Rope1_Seg01 null_rope01_connect
Rope1_Seg02 Rope1_Seg01
Rope1_Seg03 Rope1_Seg02
Rope1_Seg04 Rope1_Seg03
Rope1_Seg05 Rope1_Seg04
Rope1_Seg06 Rope1_Seg05
Rope1_Seg07 Rope1_Seg06
Rope1_Seg09 Rope1_Seg07
L_mid_hand01 Rope1_Seg09
L_mid_hand02 Rope1_Seg09
L_mid_hand03 Rope1_Seg09
null_rope02_connect R_mid_tent01
Rope2_Seg01 null_rope02_connect
Rope2_Seg02 Rope2_Seg01
Rope2_Seg03 Rope2_Seg02
Rope2_Seg04 Rope2_Seg03
Rope2_Seg05 Rope2_Seg04
Rope2_Seg06 Rope2_Seg05
Rope2_Seg07 Rope2_Seg06
Rope2_Seg09 Rope2_Seg07
R_mid_hand01 Rope2_Seg09
R_mid_hand02 Rope2_Seg09
R_mid_hand03 Rope2_Seg09
spine02 spine01
spine03 spine02
pelvis spine03
null_rope03_connect pelvis
null_rope04_connect pelvis
Rope3_Seg01 null_rope03_connect
Rope3_Seg02 Rope3_Seg01
Rope3_Seg03 Rope3_Seg02
Rope3_Seg04 Rope3_Seg03
Rope3_Seg05 Rope3_Seg04
Rope3_Seg06 Rope3_Seg05
Rope3_Seg07 Rope3_Seg06
Rope3_Seg08 Rope3_Seg07
Rope3_Seg09 Rope3_Seg08
R_rear_hand01 Rope3_Seg09
R_rear_hand02 Rope3_Seg09
R_rear_hand03 Rope3_Seg09
Rope4_Seg01 null_rope04_connect
Rope4_Seg02 Rope4_Seg01
Rope4_Seg03 Rope4_Seg02
Rope4_Seg04 Rope4_Seg03
Rope4_Seg05 Rope4_Seg04
Rope4_Seg06 Rope4_Seg05
Rope4_Seg07 Rope4_Seg06
Rope4_Seg08 Rope4_Seg07
Rope4_Seg09 Rope4_Seg08
L_rear_hand01 Rope4_Seg09
L_rear_hand02 Rope4_Seg09
L_rear_hand03 Rope4_Seg09
[BasePosition]
#SegmentName Tx, Ty, Tz, Rx, Ry, Rz, BoneLength
MASTER 0.000000 0.000000 0.000000 -90.000000 0.000000 0.000000 10.000000 
root 0.000000 0.000000 0.000000 0.000000 0.000000 0.000000 10.000000 
chest 0.000000 0.000000 0.000000 0.000000 0.000000 0.000000 10.000000 
L_mid_tent01 0.000000 0.000000 0.000000 0.000000 0.000000 0.000000 10.000000 
R_mid_tent01 0.000000 0.000000 0.000000 0.000000 0.000000 0.000000 10.000000 
spine01 0.000000 0.000000 0.000000 0.000000 0.000000 0.000000 10.000000 
Bip01_Neck 0.000000 0.000000 0.000000 0.000000 0.000000 0.000000 10.000000 
L_humerus 0.000000 0.000000 0.000000 0.000000 0.000000 0.000000 10.000000 
R_humerus 0.000000 0.000000 0.000000 0.000000 0.000000 0.000000 10.000000 
weapon_bone 0.000000 0.000000 0.000000 0.000000 0.000000 0.000000 10.000000 
Bip01_Head 0.000000 0.000000 0.000000 0.000000 0.000000 0.000000 10.000000 
eye_left_bone 0.000000 0.000000 0.000000 0.000000 0.000000 0.000000 10.000000 
eye_right_bone 0.000000 0.000000 0.000000 0.000000 0.000000 0.000000 10.000000 
L_forearm 0.000000 0.000000 0.000000 0.000000 0.000000 0.000000 10.000000 
L_front_hand 0.000000 0.000000 0.000000 0.000000 0.000000 0.000000 10.000000 
L_weapon_bone 0.000000 0.000000 0.000000 0.000000 0.000000 0.000000 10.000000 
L_front_hand01_01 0.000000 0.000000 0.000000 0.000000 0.000000 0.000000 10.000000 
L_front_hand02_01 0.000000 0.000000 0.000000 0.000000 0.000000 0.000000 10.000000 
L_front_hand03_01 0.000000 0.000000 0.000000 0.000000 0.000000 0.000000 10.000000 
L_front_hand01_02 0.000000 0.000000 0.000000 0.000000 0.000000 0.000000 10.000000 
L_front_hand02_02 0.000000 0.000000 0.000000 0.000000 0.000000 0.000000 10.000000 
L_front_hand03_02 0.000000 0.000000 0.000000 0.000000 0.000000 0.000000 10.000000 
R_forearm 0.000000 0.000000 0.000000 0.000000 0.000000 0.000000 10.000000 
R_front_hand 0.000000 0.000000 0.000000 0.000000 0.000000 0.000000 10.000000 
R_weapon_bone 0.000000 0.000000 0.000000 0.000000 0.000000 0.000000 10.000000 
R_front_hand01_01 0.000000 0.000000 0.000000 0.000000 0.000000 0.000000 10.000000 
R_front_hand02_01 0.000000 0.000000 0.000000 0.000000 0.000000 0.000000 10.000000 
R_front_hand03_01 0.000000 0.000000 0.000000 0.000000 0.000000 0.000000 10.000000 
R_front_hand01_02 0.000000 0.000000 0.000000 0.000000 0.000000 0.000000 10.000000 
R_front_hand02_02 0.000000 0.000000 0.000000 0.000000 0.000000 0.000000 10.000000 
R_front_hand03_02 0.000000 0.000000 0.000000 0.000000 0.000000 0.000000 10.000000 
null_rope01_connect 0.000000 0.000000 0.000000 0.000000 0.000000 0.000000 10.000000 
Rope1_Seg01 0.000000 0.000000 0.000000 0.000000 0.000000 0.000000 10.000000 
Rope1_Seg02 0.000000 0.000000 0.000000 0.000000 0.000000 0.000000 10.000000 
Rope1_Seg03 0.000000 0.000000 0.000000 0.000000 0.000000 0.000000 10.000000 
Rope1_Seg04 0.000000 0.000000 0.000000 0.000000 0.000000 0.000000 10.000000 
Rope1_Seg05 0.000000 0.000000 0.000000 0.000000 0.000000 0.000000 10.000000 
Rope1_Seg06 0.000000 0.000000 0.000000 0.000000 0.000000 0.000000 10.000000 
Rope1_Seg07 0.000000 0.000000 0.000000 0.000000 0.000000 0.000000 10.000000 
Rope1_Seg09 0.000000 0.000000 0.000000 0.000000 0.000000 0.000000 10.000000 
L_mid_hand01 0.000000 0.000000 0.000000 0.000000 0.000000 0.000000 10.000000 
L_mid_hand02 0.000000 0.000000 0.000000 0.000000 0.000000 0.000000 10.000000 
L_mid_hand03 0.000000 0.000000 0.000000 0.000000 0.000000 0.000000 10.000000 
null_rope02_connect 0.000000 0.000000 0.000000 0.000000 0.000000 0.000000 10.000000 
Rope2_Seg01 0.000000 0.000000 0.000000 0.000000 0.000000 0.000000 10.000000 
Rope2_Seg02 0.000000 0.000000 0.000000 0.000000 0.000000 0.000000 10.000000 
Rope2_Seg03 0.000000 0.000000 0.000000 0.000000 0.000000 0.000000 10.000000 
Rope2_Seg04 0.000000 0.000000 0.000000 0.000000 0.000000 0.000000 10.000000 
Rope2_Seg05 0.000000 0.000000 0.000000 0.000000 0.000000 0.000000 10.000000 
Rope2_Seg06 0.000000 0.000000 0.000000 0.000000 0.000000 0.000000 10.000000 
Rope2_Seg07 0.000000 0.000000 0.000000 0.000000 0.000000 0.000000 10.000000 
Rope2_Seg09 0.000000 0.000000 0.000000 0.000000 0.000000 0.000000 10.000000 
R_mid_hand01 0.000000 0.000000 0.000000 0.000000 0.000000 0.000000 10.000000 
R_mid_hand02 0.000000 0.000000 0.000000 0.000000 0.000000 0.000000 10.000000 
R_mid_hand03 0.000000 0.000000 0.000000 0.000000 0.000000 0.000000 10.000000 
spine02 0.000000 0.000000 0.000000 0.000000 0.000000 0.000000 10.000000 
spine03 0.000000 0.000000 0.000000 0.000000 0.000000 0.000000 10.000000 
pelvis 0.000000 0.000000 0.000000 0.000000 0.000000 0.000000 10.000000 
null_rope03_connect 0.000000 0.000000 0.000000 0.000000 0.000000 0.000000 10.000000 
null_rope04_connect 0.000000 0.000000 0.000000 0.000000 0.000000 0.000000 10.000000 
Rope3_Seg01 0.000000 0.000000 0.000000 0.000000 0.000000 0.000000 10.000000 
Rope3_Seg02 0.000000 0.000000 0.000000 0.000000 0.000000 0.000000 10.000000 
Rope3_Seg03 0.000000 0.000000 0.000000 0.000000 0.000000 0.000000 10.000000 
Rope3_Seg04 0.000000 0.000000 0.000000 0.000000 0.000000 0.000000 10.000000 
Rope3_Seg05 0.000000 0.000000 0.000000 0.000000 0.000000 0.000000 10.000000 
Rope3_Seg06 0.000000 0.000000 0.000000 0.000000 0.000000 0.000000 10.000000 
Rope3_Seg07 0.000000 0.000000 0.000000 0.000000 0.000000 0.000000 10.000000 
Rope3_Seg08 0.000000 0.000000 0.000000 0.000000 0.000000 0.000000 10.000000 
Rope3_Seg09 0.000000 0.000000 0.000000 0.000000 0.000000 0.000000 10.000000 
R_rear_hand01 0.000000 0.000000 0.000000 0.000000 0.000000 0.000000 10.000000 
R_rear_hand02 0.000000 0.000000 0.000000 0.000000 0.000000 0.000000 10.000000 
R_rear_hand03 0.000000 0.000000 0.000000 0.000000 0.000000 0.000000 10.000000 
Rope4_Seg01 0.000000 0.000000 0.000000 0.000000 0.000000 0.000000 10.000000 
Rope4_Seg02 0.000000 0.000000 0.000000 0.000000 0.000000 0.000000 10.000000 
Rope4_Seg03 0.000000 0.000000 0.000000 0.000000 0.000000 0.000000 10.000000 
Rope4_Seg04 0.000000 0.000000 0.000000 0.000000 0.000000 0.000000 10.000000 
Rope4_Seg05 0.000000 0.000000 0.000000 0.000000 0.000000 0.000000 10.000000 
Rope4_Seg06 0.000000 0.000000 0.000000 0.000000 0.000000 0.000000 10.000000 
Rope4_Seg07 0.000000 0.000000 0.000000 0.000000 0.000000 0.000000 10.000000 
Rope4_Seg08 0.000000 0.000000 0.000000 0.000000 0.000000 0.000000 10.000000 
Rope4_Seg09 0.000000 0.000000 0.000000 0.000000 0.000000 0.000000 10.000000 
L_rear_hand01 0.000000 0.000000 0.000000 0.000000 0.000000 0.000000 10.000000 
L_rear_hand02 0.000000 0.000000 0.000000 0.000000 0.000000 0.000000 10.000000 
L_rear_hand03 0.000000 0.000000 0.000000 0.000000 0.000000 0.000000 10.000000 
#Beginning of Data. Separated by tabs
#Fr	Tx	Ty	Tz	Rx	Ry	Rz	SF
[MASTER]
8 0.000000 0.000000 0.000000 0.001660 0.001660 0.001660 0.000000
9 0.000000 0.000000 0.000000 0.001660 0.001660 0.001660 0.000000
[root]
8 -2.168057 -4.829700 1424.212280 -91.728889 -11.584497 -89.471619 1424.222290
9 -2.340413 -6.122001 1418.431519 -91.728889 -11.584499 -89.471611 1418.446655
[chest]
8 -84.512650 -34.090519 0.000000 -2.170494 -0.006436 168.239609 91.129311
9 -84.512650 -34.090519 0.000000 -2.170494 -0.006436 168.239609 91.129311
[L_mid_tent01]
8 27.299511 22.177458 -249.918259 -20.661392 12.026043 12.983022 252.381134
9 27.299511 22.177458 -249.918259 -20.661396 12.026044 12.983024 252.381134
[R_mid_tent01]
8 23.228794 24.509907 226.238495 -165.192200 -17.956036 24.056787 228.744751
9 23.228794 24.509907 226.238495 -165.192200 -17.956036 24.056787 228.744751
[spine01]
8 -0.361383 -0.195265 0.000000 -0.000001 -0.000007 22.052340 0.410763
9 -0.361383 -0.195265 0.000000 -0.000001 -0.000007 22.052340 0.410763
[Bip01_Neck]
8 165.484543 71.581718 0.000119 175.896118 1.177290 24.871183 180.302734
9 165.484543 71.581718 0.000119 175.896118 1.177290 24.871185 180.302734
[L_humerus]
8 -13.983130 -135.272980 -120.471481 -5.480129 68.873367 84.573456 181.680161
9 -13.983130 -135.272980 -120.471481 -5.480149 68.873405 84.573479 181.680161
[R_humerus]
8 -13.983309 -135.273102 125.287651 27.897165 -69.888802 67.752319 184.909012
9 -13.983309 -135.273102 125.287651 27.897165 -69.888802 67.752319 184.909012
[weapon_bone]
8 235.964890 -300.705902 0.000000 0.000000 -89.951546 -128.212341 382.234833
9 235.964890 -300.705902 0.000000 0.000000 -89.951546 -128.212341 382.234833
[Bip01_Head]
8 193.865707 99.525291 7.890739 1.727521 4.534425 -43.429153 218.062973
9 193.865707 99.525291 7.890739 1.727521 4.534426 -43.429161 218.062973
[eye_left_bone]
8 -24.626970 125.451866 -64.772606 0.000000 -90.000000 -99.840431 143.318359
9 -24.626970 125.451866 -64.772606 0.000000 -90.000000 -99.840431 143.318359
[eye_right_bone]
8 -24.626970 125.451866 64.327362 0.000000 -89.965736 80.156380 143.117676
9 -24.626970 125.451866 64.327362 0.000000 -89.980217 80.156387 143.117676
[L_forearm]
8 322.776093 0.000000 -0.000119 0.000396 -0.002314 -109.419975 322.776093
9 322.776093 0.000000 -0.000119 0.000396 -0.002314 -109.419968 322.776093
[L_front_hand]
8 241.149185 -0.042021 -3.300071 -179.659958 -2.242151 -0.019832 241.171753
9 241.149185 -0.042021 -3.300071 -179.659958 -2.242151 -0.019832 241.171753
[L_weapon_bone]
8 156.183838 0.000000 0.000000 0.000014 0.000007 0.000001 156.183838
9 156.183838 0.000000 0.000000 0.000014 0.000007 0.000001 156.183838
[L_front_hand01_01]
8 86.095154 20.947098 -0.655860 -0.366594 -0.477154 75.385574 88.609184
9 86.095154 20.947098 -0.655860 -0.366594 -0.477154 75.385574 88.609184
[L_front_hand02_01]
8 86.935165 -11.437475 24.513514 154.399796 -59.883835 -61.369587 91.046425
9 86.935165 -11.437475 24.513514 154.399796 -59.883835 -61.369587 91.046425
[L_front_hand03_01]
8 86.637497 -14.123976 -20.424902 -153.913864 58.118130 -62.702885 90.126129
9 86.637497 -14.123976 -20.424902 -153.913849 58.118122 -62.702866 90.126129
[L_front_hand01_02]
8 71.020905 -0.000179 0.000030 0.000334 -0.002323 -106.379684 71.020905
9 71.020905 -0.000179 0.000030 0.000334 -0.002323 -106.379684 71.020905
[L_front_hand02_02]
8 71.020927 -0.000119 0.000060 0.000334 -0.002323 -106.379684 71.020927
9 71.020927 -0.000119 0.000060 0.000334 -0.002323 -106.379684 71.020927
[L_front_hand03_02]
8 71.020905 -0.000060 0.000060 0.000334 -0.002323 -106.379684 71.020905
9 71.020905 -0.000060 0.000060 0.000334 -0.002323 -106.379684 71.020905
[R_forearm]
8 322.776428 -0.000060 0.000030 0.202103 0.065158 -108.062805 322.776428
9 322.776428 -0.000060 0.000030 0.202103 0.065158 -108.062820 322.776428
[R_front_hand]
8 238.847015 -0.006795 2.210259 -0.270529 1.703932 2.322531 238.857239
9 238.847015 -0.006795 2.210259 -0.270529 1.703932 2.322531 238.857239
[R_weapon_bone]
8 155.664093 0.002503 -0.000030 0.003487 0.001180 -90.988930 155.664078
9 155.664093 0.002503 -0.000030 0.003487 0.001180 -90.988930 155.664078
[R_front_hand01_01]
8 87.624611 14.231146 22.918642 -154.633499 -59.950634 61.746063 91.683487
9 87.624611 14.231146 22.918642 -154.633499 -59.950619 61.746044 91.683487
[R_front_hand02_01]
8 89.356956 14.367283 -19.491137 154.602661 58.302849 63.744389 92.579636
9 89.356956 14.367283 -19.491137 154.602661 58.302849 63.744389 92.579636
[R_front_hand03_01]
8 87.286232 -22.307278 -0.143439 0.162155 -0.423168 -75.767921 90.091743
9 87.286232 -22.307278 -0.143439 0.162155 -0.423168 -75.767921 90.091743
[R_front_hand01_02]
8 71.020905 0.000060 0.000119 0.002323 -0.000334 106.381714 71.020905
9 71.020905 0.000060 0.000119 0.002323 -0.000334 106.381714 71.020905
[R_front_hand02_02]
8 71.020844 -0.000030 -0.000119 0.002323 -0.000334 106.381714 71.020836
9 71.020844 -0.000030 -0.000119 0.002323 -0.000334 106.381714 71.020836
[R_front_hand03_02]
8 71.020905 0.000000 0.000030 0.002323 -0.000334 106.381714 71.020905
9 71.020905 0.000000 0.000030 0.002323 -0.000334 106.381714 71.020905
[null_rope01_connect]
8 328.732483 0.000000 -0.000238 -154.483337 -64.791321 -118.914307 328.732483
9 328.732483 0.000000 -0.000238 -154.483353 -64.791344 -118.914322 328.732483
[Rope1_Seg01]
8 -0.000038 -0.000114 0.000100 52.423786 -2.069649 -122.121941 0.000157
9 -0.000038 -0.000114 0.000100 55.169014 -2.251547 -123.502235 0.000157
[Rope1_Seg02]
8 139.999863 -0.000179 0.000000 -12.040592 5.936620 1.640948 139.999863
9 139.999863 -0.000179 0.000000 -12.382503 6.162804 1.733902 139.999863
[Rope1_Seg03]
8 139.999924 0.000060 -0.000060 -15.134952 5.894610 3.575131 139.999924
9 139.999924 0.000060 -0.000060 -15.363389 6.088500 3.613498 139.999924
[Rope1_Seg04]
8 139.999924 -0.000060 -0.000119 -16.386414 5.494903 5.686369 139.999924
9 139.999924 -0.000060 -0.000119 -17.083855 5.790161 6.080817 139.999924
[Rope1_Seg05]
8 139.999832 0.000119 -0.000060 -6.599532 3.459678 0.595129 139.999832
9 139.999832 0.000119 -0.000060 -8.999234 3.674226 2.522056 139.999832
[Rope1_Seg06]
8 139.999954 0.000119 -0.000060 -2.706308 1.670364 -0.146644 139.999954
9 139.999954 0.000119 -0.000060 -3.706130 1.609046 0.889880 139.999954
[Rope1_Seg07]
8 139.999985 0.000060 0.000000 -2.334434 0.930483 0.427920 139.999985
9 139.999985 0.000060 0.000000 -2.588234 0.829790 0.962447 139.999985
[Rope1_Seg09]
8 121.602913 0.000119 -0.000089 -89.793175 -1.359789 0.847147 121.602913
9 121.602913 0.000119 -0.000089 -89.793175 -1.359789 0.847147 121.602913
[L_mid_hand01]
8 103.859421 1.038730 8.195221 106.855484 -31.239275 -9.461397 104.187431
9 103.859421 1.038730 8.195221 106.855484 -31.239275 -9.461397 104.187431
[L_mid_hand02]
8 105.572853 -4.139662 -10.864139 -142.331345 25.752670 -28.774628 106.211075
9 105.572853 -4.139662 -10.864139 -142.331345 25.752670 -28.774628 106.211075
[L_mid_hand03]
8 104.641464 17.579376 -3.913581 -16.122810 9.734291 34.223598 106.179977
9 104.641464 17.579376 -3.913581 -16.122810 9.734291 34.223598 106.179977
[null_rope02_connect]
8 328.732849 0.000179 -0.000119 -140.208786 68.099220 -35.150635 328.732849
9 328.732849 0.000179 -0.000119 -140.208801 68.099251 -35.150646 328.732849
[Rope2_Seg01]
8 0.000095 0.000153 0.000018 14.669124 0.733468 -39.402161 0.000181
9 0.000095 0.000153 0.000020 8.401544 1.091464 -37.332142 0.000181
[Rope2_Seg02]
8 139.999741 -0.000060 -0.000119 54.697742 -2.085972 -19.138783 139.999756
9 139.999741 -0.000060 -0.000119 55.606430 -0.840260 -18.922050 139.999756
[Rope2_Seg03]
8 140.000107 0.000030 0.000000 23.530190 -21.731043 -8.864626 140.000107
9 140.000107 0.000030 0.000000 26.027554 -20.984346 -10.054393 140.000107
[Rope2_Seg04]
8 139.999802 0.000000 -0.000060 8.274579 -8.588204 -5.161790 139.999802
9 139.999802 0.000000 -0.000060 9.159054 -11.851948 -4.812473 139.999802
[Rope2_Seg05]
8 139.999985 -0.000060 0.000119 4.926933 4.040858 -7.165320 139.999985
9 139.999985 -0.000060 0.000119 5.543986 1.653912 -7.267096 139.999985
[Rope2_Seg06]
8 139.999893 -0.000030 -0.000119 2.582393 0.297758 -2.598903 139.999893
9 139.999893 -0.000030 -0.000119 2.666148 -0.534205 -2.702228 139.999893
[Rope2_Seg07]
8 139.999893 0.000060 -0.000060 1.571132 -0.122259 -1.424549 139.999893
9 139.999893 0.000060 -0.000060 1.523419 -0.672278 -1.397197 139.999893
[Rope2_Seg09]
8 121.338966 0.000089 -0.000060 33.793236 -1.359788 -0.847141 121.338966
9 121.338966 0.000089 -0.000060 33.793236 -1.359788 -0.847141 121.338966
[R_mid_hand01]
8 104.680779 11.144459 -10.335981 -41.523792 25.424656 28.595957 105.778534
9 104.680779 11.144459 -10.335981 -41.523792 25.424656 28.595957 105.778534
[R_mid_hand02]
8 104.070427 2.443552 8.231699 72.847389 -32.746803 10.013901 104.424065
9 104.070427 2.443552 8.231699 72.847389 -32.746803 10.013901 104.424065
[R_mid_hand03]
8 106.028137 -11.221827 -5.996406 -167.901306 10.259192 -37.009720 106.788818
9 106.028137 -11.221827 -5.996406 -167.901306 10.259192 -37.009720 106.788818
[spine02]
8 129.756927 0.001550 0.000119 0.360061 -4.044797 -12.915058 129.756927
9 129.756927 0.001550 0.000119 0.360061 -4.044797 -12.915058 129.756927
[spine03]
8 78.613846 0.087372 -4.898873 1.896495 3.831288 16.473045 78.766380
9 78.613846 0.087372 -4.898873 1.896495 3.831288 16.473045 78.766380
[pelvis]
8 169.435242 0.051022 0.000000 -0.060465 -0.180225 14.087930 169.435257
9 169.435242 0.051022 0.000000 -0.060465 -0.180225 14.087931 169.435257
[null_rope03_connect]
8 -1.257226 -2.466202 137.391083 156.329987 -89.381348 -94.430771 137.418976
9 -1.257226 -2.466202 137.391083 156.329987 -89.381348 -94.430771 137.418976
[null_rope04_connect]
8 -1.259640 -2.480268 -137.844437 156.329987 -89.381348 -94.430771 137.872513
9 -1.259640 -2.480268 -137.844437 156.329987 -89.381348 -94.430771 137.872513
[Rope3_Seg01]
8 0.000010 0.000038 -0.000114 -129.362701 30.870106 -70.676918 0.000121
9 0.000010 0.000038 -0.000114 -130.706848 32.320724 -73.143593 0.000121
[Rope3_Seg02]
8 139.999924 -0.000119 0.000060 0.235961 3.931765 -1.103698 139.999924
9 139.999924 -0.000119 0.000060 0.329982 3.194181 -2.245405 139.999924
[Rope3_Seg03]
8 139.999924 -0.000119 0.000119 0.389186 5.222183 -1.599575 139.999924
9 139.999924 -0.000119 0.000119 0.363290 4.227643 -3.078485 139.999924
[Rope3_Seg04]
8 139.999924 0.000119 0.000000 0.106014 10.137028 -9.418371 139.999924
9 139.999924 0.000119 0.000000 -0.602398 6.976080 -13.044902 139.999924
[Rope3_Seg05]
8 139.999924 -0.000238 0.000060 0.348277 4.743389 9.665033 139.999924
9 139.999924 -0.000238 0.000060 0.636118 6.455471 7.979593 139.999924
[Rope3_Seg06]
8 139.999893 -0.000119 -0.000060 -3.604585 -2.395983 15.091382 139.999893
9 139.999893 -0.000119 -0.000060 -2.384136 0.982881 19.467007 139.999893
[Rope3_Seg07]
8 139.999771 0.000060 -0.000119 -1.017145 -0.200889 5.064735 139.999771
9 139.999771 0.000060 -0.000119 -0.919994 0.885037 6.368287 139.999771
[Rope3_Seg08]
8 139.999985 -0.000060 0.000000 -0.447033 -0.140752 2.806716 139.999985
9 139.999985 -0.000060 0.000000 -0.425078 0.454766 3.432845 139.999985
[Rope3_Seg09]
8 90.185997 -0.000179 -0.000060 89.793228 -1.359877 -0.847183 90.185997
9 90.185997 -0.000179 -0.000060 89.793228 -1.359877 -0.847183 90.185997
[R_rear_hand01]
8 103.366196 -6.073594 -10.757982 -161.551193 16.666374 -30.088671 104.101845
9 103.366196 -6.073594 -10.757982 -161.551193 16.666374 -30.088671 104.101845
[R_rear_hand02]
8 100.509819 12.039542 -7.992327 -34.280552 19.289745 28.875523 101.543350
9 100.509819 12.039542 -7.992327 -34.280552 19.289745 28.875523 101.543350
[R_rear_hand03]
8 101.539970 5.215704 5.435467 83.366440 -30.933914 7.284830 101.819031
9 101.539970 5.215704 5.435467 83.366440 -30.933914 7.284830 101.819031
[Rope4_Seg01]
8 0.000010 0.000038 -0.000114 48.968647 18.067558 -96.627045 0.000121
9 0.000010 0.000038 -0.000114 47.558327 17.092236 -101.382950 0.000121
[Rope4_Seg02]
8 139.999985 0.000060 0.000119 0.981218 2.744806 -5.205922 139.999985
9 139.999985 0.000060 0.000119 0.584838 5.557214 -3.292920 139.999985
[Rope4_Seg03]
8 139.999924 0.000000 -0.000238 0.876205 3.114769 -3.883922 139.999924
9 139.999924 0.000000 -0.000238 0.854883 5.916218 -2.083824 139.999924
[Rope4_Seg04]
8 139.999985 0.000000 0.000119 1.071486 7.016292 -1.221018 139.999985
9 139.999985 0.000000 0.000119 1.443026 10.664742 1.338540 139.999985
[Rope4_Seg05]
8 139.999802 -0.000060 -0.000119 1.063256 -4.165107 -5.750707 139.999802
9 139.999802 -0.000060 -0.000119 1.591598 -4.474190 -6.305473 139.999802
[Rope4_Seg06]
8 139.999924 0.000000 0.000060 0.960223 -11.329181 -7.544076 139.999924
9 139.999924 0.000000 0.000060 1.663658 -14.264762 -9.978533 139.999924
[Rope4_Seg07]
8 139.999802 0.000000 0.000000 0.279288 -6.643268 -4.439588 139.999802
9 139.999802 0.000000 0.000000 0.380602 -7.784572 -5.419600 139.999802
[Rope4_Seg08]
8 139.999924 0.000000 0.000119 -1.545468 -2.902771 -2.215487 139.999924
9 139.999924 0.000000 0.000119 -1.546612 -3.266253 -2.544839 139.999924
[Rope4_Seg09]
8 90.185791 0.000060 0.000060 -135.617828 2.228885 0.850567 90.185791
9 90.185791 0.000060 0.000060 -135.617828 2.228885 0.850567 90.185791
[L_rear_hand01]
8 101.696655 -8.392275 -7.654577 -34.454281 -18.946800 151.655121 102.329041
9 101.696655 -8.392275 -7.654577 -34.454281 -18.946800 151.655121 102.329041
[L_rear_hand02]
8 102.726799 -1.568258 5.773216 83.407906 30.330435 172.796509 102.900848
9 102.726799 -1.568258 5.773216 83.407906 30.330435 172.796509 102.900848
[L_rear_hand03]
8 104.552910 9.721220 -10.420293 -161.379868 -16.473232 -150.512238 105.519653
9 104.552910 9.721220 -10.420293 -161.379868 -16.473232 -150.512238 105.519653
